<mxfile host="app.diagrams.net" modified="2024-06-23T18:00:53.420Z" agent="Mozilla/5.0 (Macintosh; Intel Mac OS X 10_15_7) AppleWebKit/537.36 (KHTML, like Gecko) Chrome/124.0.0.0 Safari/537.36" etag="q3-Eg5YUfKDZ9Kxj7sso" version="24.6.1" type="device">
  <diagram name="Page-1" id="ZJCzY4l8t1-iWLCl4Jhh">
    <mxGraphModel dx="3925" dy="2458" grid="1" gridSize="10" guides="1" tooltips="1" connect="1" arrows="1" fold="1" page="1" pageScale="1" pageWidth="850" pageHeight="1100" math="0" shadow="0">
      <root>
        <mxCell id="0" />
        <mxCell id="1" parent="0" />
        <mxCell id="nRX86bNfshnZ4T1C2CH_-1" value="&lt;p style=&quot;margin: 4px 0px 0px; text-align: center;&quot;&gt;&lt;font style=&quot;&quot;&gt;&lt;i style=&quot;font-size: 16px;&quot;&gt;&amp;lt;&amp;lt;Interface&amp;gt;&amp;gt;&lt;/i&gt;&lt;br&gt;&lt;/font&gt;&lt;span style=&quot;background-color: initial; text-align: left; font-size: 16px;&quot;&gt;&lt;b&gt;BasePizza&lt;/b&gt;&lt;/span&gt;&lt;/p&gt;&lt;hr size=&quot;1&quot; style=&quot;border-style: solid; font-size: 16px;&quot;&gt;&lt;p style=&quot;margin: 0px 0px 0px 4px; font-size: 16px; text-align: center;&quot;&gt;&lt;font style=&quot;font-size: 16px;&quot;&gt;&lt;br&gt;&lt;/font&gt;&lt;/p&gt;&lt;p style=&quot;text-align: center; margin: 0px 0px 0px 4px;&quot;&gt;&lt;span style=&quot;font-size: 16px;&quot;&gt;&amp;nbsp;int cost();&lt;/span&gt;&lt;br&gt;&lt;/p&gt;" style="verticalAlign=top;align=left;overflow=fill;html=1;whiteSpace=wrap;strokeWidth=2;" parent="1" vertex="1">
          <mxGeometry x="-615" y="60" width="380" height="120" as="geometry" />
        </mxCell>
        <mxCell id="nRX86bNfshnZ4T1C2CH_-2" style="edgeStyle=orthogonalEdgeStyle;rounded=0;orthogonalLoop=1;jettySize=auto;html=1;exitX=0.5;exitY=1;exitDx=0;exitDy=0;" parent="1" source="nRX86bNfshnZ4T1C2CH_-1" target="nRX86bNfshnZ4T1C2CH_-1" edge="1">
          <mxGeometry relative="1" as="geometry" />
        </mxCell>
        <mxCell id="nRX86bNfshnZ4T1C2CH_-3" value="&lt;p style=&quot;margin: 4px 0px 0px; text-align: center; font-size: 16px;&quot;&gt;&lt;span style=&quot;background-color: initial;&quot;&gt;&lt;font style=&quot;font-size: 16px;&quot;&gt;&lt;i&gt;&amp;lt;&amp;lt; Class &amp;gt;&amp;gt;&lt;/i&gt;&lt;/font&gt;&lt;/span&gt;&lt;/p&gt;&lt;p style=&quot;margin: 4px 0px 0px; text-align: center;&quot;&gt;&lt;span style=&quot;font-size: 16px;&quot;&gt;&lt;b&gt;VegPizza&lt;/b&gt;&lt;/span&gt;&lt;br&gt;&lt;/p&gt;&lt;hr size=&quot;1&quot; style=&quot;border-style: solid; font-size: 16px;&quot;&gt;&lt;br&gt;&lt;div style=&quot;height: 2px; font-size: 16px;&quot;&gt;&lt;font style=&quot;font-size: 16px;&quot;&gt;&amp;nbsp; &amp;nbsp; &amp;nbsp;private final int cost = 100;&lt;br&gt;&lt;br&gt;&lt;/font&gt;&lt;/div&gt;&lt;div style=&quot;font-size: 16px;&quot;&gt;&lt;font style=&quot;font-size: 16px;&quot;&gt;&amp;nbsp; &amp;nbsp; &amp;nbsp;&lt;/font&gt;&lt;/div&gt;&lt;div style=&quot;font-size: 16px;&quot;&gt;&lt;br&gt;&lt;/div&gt;&lt;hr size=&quot;1&quot; style=&quot;border-style: solid; font-size: 16px;&quot;&gt;&lt;p style=&quot;margin: 0px 0px 0px 4px; font-size: 16px;&quot;&gt;&lt;font style=&quot;font-size: 16px;&quot;&gt;&lt;br&gt;&lt;/font&gt;&lt;/p&gt;&lt;p style=&quot;margin: 0px 0px 0px 4px;&quot;&gt;&lt;font style=&quot;font-size: 16px;&quot;&gt;&amp;nbsp; &amp;nbsp;&amp;nbsp;&lt;/font&gt;&lt;span style=&quot;background-color: initial; font-size: 16px;&quot;&gt;@Override&lt;/span&gt;&lt;/p&gt;&lt;p style=&quot;margin: 0px 0px 0px 4px;&quot;&gt;&lt;span style=&quot;font-size: 16px;&quot;&gt;&amp;nbsp; &amp;nbsp; public int cost() {&lt;/span&gt;&lt;/p&gt;&lt;p style=&quot;margin: 0px 0px 0px 4px;&quot;&gt;&lt;span style=&quot;font-size: 16px;&quot;&gt;&amp;nbsp; &amp;nbsp; &amp;nbsp; &amp;nbsp; return cost;&lt;/span&gt;&lt;/p&gt;&lt;p style=&quot;margin: 0px 0px 0px 4px;&quot;&gt;&lt;span style=&quot;font-size: 16px;&quot;&gt;&amp;nbsp; &amp;nbsp; }&lt;/span&gt;&lt;/p&gt;" style="verticalAlign=top;align=left;overflow=fill;html=1;whiteSpace=wrap;strokeWidth=2;" parent="1" vertex="1">
          <mxGeometry x="-1190" y="200" width="550" height="260" as="geometry" />
        </mxCell>
        <mxCell id="nRX86bNfshnZ4T1C2CH_-4" value="&lt;p style=&quot;margin: 4px 0px 0px; text-align: center; font-size: 16px;&quot;&gt;&lt;font style=&quot;font-size: 16px;&quot;&gt;&lt;i style=&quot;&quot;&gt;&amp;lt;&amp;lt;Interface&amp;gt;&amp;gt;&lt;/i&gt;&lt;br&gt;&lt;b style=&quot;&quot;&gt;ToppingDecorator&lt;/b&gt;&lt;br&gt;&lt;/font&gt;&lt;/p&gt;&lt;hr size=&quot;1&quot; style=&quot;border-style: solid; font-size: 16px;&quot;&gt;&lt;p style=&quot;margin: 0px 0px 0px 4px; text-align: center; font-size: 16px;&quot;&gt;&lt;span style=&quot;background-color: initial;&quot;&gt;&lt;font style=&quot;font-size: 16px;&quot;&gt;&lt;br&gt;&lt;/font&gt;&lt;/span&gt;&lt;/p&gt;&lt;p style=&quot;margin: 0px 0px 0px 4px; text-align: center; font-size: 16px;&quot;&gt;&lt;span style=&quot;background-color: initial;&quot;&gt;&lt;font style=&quot;font-size: 16px;&quot;&gt;int cost();&lt;/font&gt;&lt;/span&gt;&lt;br&gt;&lt;/p&gt;" style="verticalAlign=top;align=left;overflow=fill;html=1;whiteSpace=wrap;strokeWidth=2;" parent="1" vertex="1">
          <mxGeometry x="-60" y="60" width="270" height="120" as="geometry" />
        </mxCell>
        <mxCell id="nRX86bNfshnZ4T1C2CH_-5" style="edgeStyle=orthogonalEdgeStyle;rounded=0;orthogonalLoop=1;jettySize=auto;html=1;exitX=0;exitY=0.75;exitDx=0;exitDy=0;entryX=0.5;entryY=1;entryDx=0;entryDy=0;endArrow=open;endFill=0;strokeWidth=2;" parent="1" source="nRX86bNfshnZ4T1C2CH_-6" target="nRX86bNfshnZ4T1C2CH_-1" edge="1">
          <mxGeometry relative="1" as="geometry" />
        </mxCell>
        <mxCell id="nRX86bNfshnZ4T1C2CH_-6" value="&lt;p style=&quot;margin: 4px 0px 0px; text-align: center; font-size: 16px;&quot;&gt;&lt;span style=&quot;background-color: initial;&quot;&gt;&lt;font style=&quot;font-size: 16px;&quot;&gt;&lt;i&gt;&amp;lt;&amp;lt; Class &amp;gt;&amp;gt;&lt;/i&gt;&lt;/font&gt;&lt;/span&gt;&lt;/p&gt;&lt;p style=&quot;margin: 4px 0px 0px; text-align: center;&quot;&gt;&lt;span style=&quot;font-size: 16px;&quot;&gt;&lt;b&gt;CheeseDecorator&lt;/b&gt;&lt;/span&gt;&lt;br&gt;&lt;/p&gt;&lt;hr size=&quot;1&quot; style=&quot;border-style: solid; font-size: 16px;&quot;&gt;&lt;div style=&quot;height: 2px; font-size: 16px;&quot;&gt;&lt;br&gt;&lt;/div&gt;&lt;div style=&quot;font-size: 16px;&quot;&gt;&lt;font style=&quot;font-size: 13px;&quot;&gt;&lt;span style=&quot;font-size: 16px;&quot;&gt;&amp;nbsp; &amp;nbsp; &lt;/span&gt;&lt;/font&gt;&lt;span style=&quot;background-color: initial;&quot;&gt;&lt;font style=&quot;font-size: 16px;&quot;&gt;BasePizza basePizza;&lt;/font&gt;&lt;/span&gt;&lt;/div&gt;&lt;div style=&quot;font-size: 16px;&quot;&gt;&lt;font style=&quot;font-size: 16px;&quot;&gt;&amp;nbsp; &amp;nbsp; private final int costOfCheese = 30;&lt;/font&gt;&lt;/div&gt;&lt;hr size=&quot;1&quot; style=&quot;border-style: solid; font-size: 16px;&quot;&gt;&lt;p style=&quot;margin: 0px 0px 0px 4px; font-size: 16px;&quot;&gt;&lt;font style=&quot;font-size: 16px;&quot;&gt;&lt;br&gt;&lt;/font&gt;&lt;/p&gt;&lt;p style=&quot;margin: 0px 0px 0px 4px;&quot;&gt;&lt;font style=&quot;font-size: 16px;&quot;&gt;&amp;nbsp; &amp;nbsp;&amp;nbsp;&lt;/font&gt;&lt;span style=&quot;background-color: initial; font-size: 16px;&quot;&gt;public CheeseDecorator(BasePizza basePizza) {&lt;/span&gt;&lt;/p&gt;&lt;p style=&quot;margin: 0px 0px 0px 4px;&quot;&gt;&lt;span style=&quot;font-size: 16px;&quot;&gt;&amp;nbsp; &amp;nbsp; &amp;nbsp; &amp;nbsp; this.basePizza = basePizza;&lt;/span&gt;&lt;/p&gt;&lt;p style=&quot;margin: 0px 0px 0px 4px;&quot;&gt;&lt;span style=&quot;font-size: 16px;&quot;&gt;&amp;nbsp; &amp;nbsp; }&lt;/span&gt;&lt;/p&gt;&lt;p style=&quot;margin: 0px 0px 0px 4px;&quot;&gt;&lt;span style=&quot;font-size: 16px;&quot;&gt;&lt;br&gt;&lt;/span&gt;&lt;/p&gt;&lt;p style=&quot;margin: 0px 0px 0px 4px;&quot;&gt;&lt;span style=&quot;font-size: 16px;&quot;&gt;&amp;nbsp; &amp;nbsp; @Override&lt;/span&gt;&lt;/p&gt;&lt;p style=&quot;margin: 0px 0px 0px 4px;&quot;&gt;&lt;span style=&quot;font-size: 16px;&quot;&gt;&amp;nbsp; &amp;nbsp; public int cost() {&lt;/span&gt;&lt;/p&gt;&lt;p style=&quot;margin: 0px 0px 0px 4px;&quot;&gt;&lt;span style=&quot;font-size: 16px;&quot;&gt;&amp;nbsp; &amp;nbsp; &amp;nbsp; &amp;nbsp; return this.basePizza.cost() + costOfCheese;&lt;/span&gt;&lt;/p&gt;&lt;p style=&quot;margin: 0px 0px 0px 4px;&quot;&gt;&lt;span style=&quot;font-size: 16px;&quot;&gt;&amp;nbsp; &amp;nbsp; }&lt;/span&gt;&lt;/p&gt;" style="verticalAlign=top;align=left;overflow=fill;html=1;whiteSpace=wrap;strokeWidth=2;" parent="1" vertex="1">
          <mxGeometry x="-275" y="300" width="700" height="330" as="geometry" />
        </mxCell>
        <mxCell id="nRX86bNfshnZ4T1C2CH_-7" style="edgeStyle=orthogonalEdgeStyle;rounded=0;orthogonalLoop=1;jettySize=auto;html=1;exitX=0;exitY=0.5;exitDx=0;exitDy=0;endArrow=open;endFill=0;strokeWidth=2;entryX=0.5;entryY=0;entryDx=0;entryDy=0;" parent="1" source="nRX86bNfshnZ4T1C2CH_-8" target="nRX86bNfshnZ4T1C2CH_-1" edge="1">
          <mxGeometry relative="1" as="geometry">
            <mxPoint x="-200" y="110" as="targetPoint" />
          </mxGeometry>
        </mxCell>
        <mxCell id="nRX86bNfshnZ4T1C2CH_-8" value="&lt;p style=&quot;margin: 4px 0px 0px; text-align: center; font-size: 16px;&quot;&gt;&lt;span style=&quot;background-color: initial;&quot;&gt;&lt;font style=&quot;font-size: 16px;&quot;&gt;&lt;i style=&quot;&quot;&gt;&amp;lt;&amp;lt; Class &amp;gt;&amp;gt;&lt;/i&gt;&lt;/font&gt;&lt;/span&gt;&lt;/p&gt;&lt;p style=&quot;margin: 4px 0px 0px; text-align: center; font-size: 16px;&quot;&gt;&lt;font style=&quot;font-size: 16px;&quot;&gt;&lt;b&gt;OnionDecorator&lt;/b&gt;&lt;br&gt;&lt;/font&gt;&lt;/p&gt;&lt;hr size=&quot;1&quot; style=&quot;border-style: solid; font-size: 16px;&quot;&gt;&lt;div style=&quot;height: 2px; font-size: 16px;&quot;&gt;&lt;font style=&quot;font-size: 16px;&quot;&gt;&lt;span style=&quot;background-color: initial;&quot;&gt;&lt;span style=&quot;white-space: pre;&quot;&gt;&#x9;&lt;/span&gt;&lt;/span&gt;&lt;span style=&quot;background-color: initial;&quot;&gt;BasePizza basePizza;&lt;/span&gt;&lt;/font&gt;&lt;/div&gt;&lt;div style=&quot;height: 2px; font-size: 16px;&quot;&gt;&lt;font style=&quot;font-size: 16px;&quot;&gt;&lt;span style=&quot;background-color: initial;&quot;&gt;&lt;br&gt;&lt;/span&gt;&lt;/font&gt;&lt;/div&gt;&lt;div style=&quot;height: 2px; font-size: 16px;&quot;&gt;&lt;font style=&quot;font-size: 16px;&quot;&gt;&lt;span style=&quot;background-color: initial;&quot;&gt;&lt;br&gt;&lt;/span&gt;&lt;/font&gt;&lt;/div&gt;&lt;div style=&quot;height: 2px; font-size: 16px;&quot;&gt;&lt;font style=&quot;font-size: 16px;&quot;&gt;&lt;span style=&quot;background-color: initial;&quot;&gt;&lt;br&gt;&lt;/span&gt;&lt;/font&gt;&lt;/div&gt;&lt;div style=&quot;height: 2px; font-size: 16px;&quot;&gt;&lt;font style=&quot;font-size: 16px;&quot;&gt;&lt;span style=&quot;background-color: initial;&quot;&gt;&amp;nbsp;&lt;/span&gt;&lt;/font&gt;&lt;/div&gt;&lt;div style=&quot;height: 2px; font-size: 16px;&quot;&gt;&lt;span style=&quot;background-color: initial;&quot;&gt;&lt;font style=&quot;font-size: 16px;&quot;&gt;&lt;br&gt;&lt;/font&gt;&lt;/span&gt;&lt;/div&gt;&lt;div style=&quot;height: 2px; font-size: 16px;&quot;&gt;&lt;span style=&quot;background-color: initial;&quot;&gt;&lt;font style=&quot;font-size: 16px;&quot;&gt;&lt;br&gt;&lt;/font&gt;&lt;/span&gt;&lt;/div&gt;&lt;div style=&quot;height: 2px; font-size: 16px;&quot;&gt;&lt;span style=&quot;background-color: initial;&quot;&gt;&lt;font style=&quot;font-size: 16px;&quot;&gt;&lt;br&gt;&lt;/font&gt;&lt;/span&gt;&lt;/div&gt;&lt;div style=&quot;height: 2px; font-size: 16px;&quot;&gt;&lt;span style=&quot;background-color: initial;&quot;&gt;&lt;font style=&quot;font-size: 16px;&quot;&gt;&lt;br&gt;&lt;/font&gt;&lt;/span&gt;&lt;/div&gt;&lt;div style=&quot;height: 2px; font-size: 16px;&quot;&gt;&lt;span style=&quot;background-color: initial;&quot;&gt;&lt;font style=&quot;font-size: 16px;&quot;&gt;&lt;br&gt;&lt;/font&gt;&lt;/span&gt;&lt;/div&gt;&lt;div style=&quot;height: 2px; font-size: 16px;&quot;&gt;&lt;span style=&quot;background-color: initial;&quot;&gt;&lt;font style=&quot;font-size: 16px;&quot;&gt;&lt;br&gt;&lt;/font&gt;&lt;/span&gt;&lt;/div&gt;&lt;div style=&quot;height: 2px; font-size: 16px;&quot;&gt;&lt;span style=&quot;background-color: initial;&quot;&gt;&lt;font style=&quot;font-size: 16px;&quot;&gt;&lt;span style=&quot;white-space: pre;&quot;&gt;&#x9;&lt;/span&gt;private final int costOfOnion = 40;&lt;/font&gt;&lt;/span&gt;&lt;/div&gt;&lt;div style=&quot;font-size: 16px;&quot;&gt;&lt;font style=&quot;font-size: 16px;&quot;&gt;&lt;br&gt;&lt;/font&gt;&lt;/div&gt;&lt;hr size=&quot;1&quot; style=&quot;border-style: solid; font-size: 16px;&quot;&gt;&lt;p style=&quot;margin: 0px 0px 0px 4px; font-size: 16px;&quot;&gt;&lt;font style=&quot;font-size: 16px;&quot;&gt;&lt;br&gt;&lt;/font&gt;&lt;/p&gt;&lt;p style=&quot;margin: 0px 0px 0px 4px; font-size: 16px;&quot;&gt;&lt;font style=&quot;font-size: 16px;&quot;&gt;&lt;font style=&quot;font-size: 16px;&quot;&gt;&amp;nbsp; &amp;nbsp;&amp;nbsp;&lt;/font&gt;&lt;span style=&quot;background-color: initial;&quot;&gt;public OnionDecorator(BasePizza basePizza) {&lt;/span&gt;&lt;/font&gt;&lt;/p&gt;&lt;p style=&quot;margin: 0px 0px 0px 4px; font-size: 16px;&quot;&gt;&lt;font style=&quot;font-size: 16px;&quot;&gt;&amp;nbsp; &amp;nbsp; &amp;nbsp; &amp;nbsp; this.basePizza = basePizza;&lt;/font&gt;&lt;/p&gt;&lt;p style=&quot;margin: 0px 0px 0px 4px; font-size: 16px;&quot;&gt;&lt;font style=&quot;font-size: 16px;&quot;&gt;&amp;nbsp; &amp;nbsp; }&lt;/font&gt;&lt;/p&gt;&lt;p style=&quot;margin: 0px 0px 0px 4px; font-size: 16px;&quot;&gt;&lt;font style=&quot;font-size: 16px;&quot;&gt;&lt;br&gt;&lt;/font&gt;&lt;/p&gt;&lt;p style=&quot;margin: 0px 0px 0px 4px; font-size: 16px;&quot;&gt;&lt;font style=&quot;font-size: 16px;&quot;&gt;&amp;nbsp; &amp;nbsp; @Override&lt;/font&gt;&lt;/p&gt;&lt;p style=&quot;margin: 0px 0px 0px 4px; font-size: 16px;&quot;&gt;&lt;font style=&quot;font-size: 16px;&quot;&gt;&amp;nbsp; &amp;nbsp; public int cost() {&lt;/font&gt;&lt;/p&gt;&lt;p style=&quot;margin: 0px 0px 0px 4px; font-size: 16px;&quot;&gt;&lt;font style=&quot;font-size: 16px;&quot;&gt;&amp;nbsp; &amp;nbsp; &amp;nbsp; &amp;nbsp; return this.basePizza.cost() + costOfOnion;&lt;/font&gt;&lt;/p&gt;&lt;p style=&quot;margin: 0px 0px 0px 4px; font-size: 16px;&quot;&gt;&lt;font style=&quot;font-size: 16px;&quot;&gt;&amp;nbsp; &amp;nbsp; }&lt;/font&gt;&lt;/p&gt;" style="verticalAlign=top;align=left;overflow=fill;html=1;whiteSpace=wrap;strokeWidth=2;" parent="1" vertex="1">
          <mxGeometry x="-287.5" y="-390" width="725" height="330" as="geometry" />
        </mxCell>
        <mxCell id="nRX86bNfshnZ4T1C2CH_-9" value="" style="endArrow=classic;html=1;rounded=0;exitX=1;exitY=0.5;exitDx=0;exitDy=0;strokeWidth=2;entryX=0.25;entryY=1;entryDx=0;entryDy=0;" parent="1" source="nRX86bNfshnZ4T1C2CH_-3" target="nRX86bNfshnZ4T1C2CH_-1" edge="1">
          <mxGeometry relative="1" as="geometry">
            <mxPoint x="-610" y="270" as="sourcePoint" />
            <mxPoint x="-400" y="170" as="targetPoint" />
            <Array as="points">
              <mxPoint x="-520" y="330" />
            </Array>
          </mxGeometry>
        </mxCell>
        <mxCell id="nRX86bNfshnZ4T1C2CH_-10" value="&lt;span style=&quot;font-size: 16px; background-color: rgb(251, 251, 251);&quot;&gt;Implements&lt;/span&gt;" style="edgeLabel;resizable=0;html=1;;align=center;verticalAlign=middle;" parent="nRX86bNfshnZ4T1C2CH_-9" connectable="0" vertex="1">
          <mxGeometry relative="1" as="geometry" />
        </mxCell>
        <mxCell id="nRX86bNfshnZ4T1C2CH_-11" value="" style="endArrow=classic;html=1;rounded=0;entryX=0.5;entryY=1;entryDx=0;entryDy=0;exitX=0.5;exitY=0;exitDx=0;exitDy=0;strokeWidth=2;" parent="1" source="nRX86bNfshnZ4T1C2CH_-6" target="nRX86bNfshnZ4T1C2CH_-4" edge="1">
          <mxGeometry relative="1" as="geometry">
            <mxPoint x="410" y="140" as="sourcePoint" />
            <mxPoint x="410" y="10" as="targetPoint" />
          </mxGeometry>
        </mxCell>
        <mxCell id="nRX86bNfshnZ4T1C2CH_-12" value="&lt;span style=&quot;font-size: 16px; background-color: rgb(251, 251, 251);&quot;&gt;Implements&lt;/span&gt;" style="edgeLabel;resizable=0;html=1;;align=center;verticalAlign=middle;" parent="nRX86bNfshnZ4T1C2CH_-11" connectable="0" vertex="1">
          <mxGeometry relative="1" as="geometry" />
        </mxCell>
        <mxCell id="nRX86bNfshnZ4T1C2CH_-13" value="" style="endArrow=classic;html=1;rounded=0;strokeWidth=2;exitX=0.5;exitY=1;exitDx=0;exitDy=0;entryX=0.5;entryY=0;entryDx=0;entryDy=0;" parent="1" source="nRX86bNfshnZ4T1C2CH_-8" target="nRX86bNfshnZ4T1C2CH_-4" edge="1">
          <mxGeometry relative="1" as="geometry">
            <mxPoint x="680" y="-240" as="sourcePoint" />
            <mxPoint x="540" y="-140" as="targetPoint" />
          </mxGeometry>
        </mxCell>
        <mxCell id="nRX86bNfshnZ4T1C2CH_-14" value="&lt;span style=&quot;font-size: 16px; background-color: rgb(251, 251, 251);&quot;&gt;Implements&lt;/span&gt;" style="edgeLabel;resizable=0;html=1;;align=center;verticalAlign=middle;" parent="nRX86bNfshnZ4T1C2CH_-13" connectable="0" vertex="1">
          <mxGeometry relative="1" as="geometry" />
        </mxCell>
        <mxCell id="nRX86bNfshnZ4T1C2CH_-16" value="&lt;font style=&quot;font-size: 16px;&quot;&gt;HAS - A&lt;/font&gt;" style="text;html=1;align=center;verticalAlign=middle;resizable=0;points=[];autosize=1;strokeColor=none;fillColor=none;" parent="1" vertex="1">
          <mxGeometry x="-400" y="-260" width="80" height="30" as="geometry" />
        </mxCell>
        <mxCell id="nRX86bNfshnZ4T1C2CH_-17" value="&lt;font style=&quot;font-size: 16px;&quot;&gt;HAS - A&lt;/font&gt;" style="text;html=1;align=center;verticalAlign=middle;resizable=0;points=[];autosize=1;strokeColor=none;fillColor=none;" parent="1" vertex="1">
          <mxGeometry x="-400" y="550" width="80" height="30" as="geometry" />
        </mxCell>
        <mxCell id="nRX86bNfshnZ4T1C2CH_-18" value="&lt;p style=&quot;margin: 4px 0px 0px; text-align: center; font-size: 16px;&quot;&gt;&lt;span style=&quot;background-color: initial;&quot;&gt;&lt;font style=&quot;font-size: 16px;&quot;&gt;&lt;i&gt;&amp;lt;&amp;lt; Class &amp;gt;&amp;gt;&lt;/i&gt;&lt;/font&gt;&lt;/span&gt;&lt;/p&gt;&lt;p style=&quot;margin: 4px 0px 0px; text-align: center;&quot;&gt;&lt;span style=&quot;font-size: 16px;&quot;&gt;&lt;b&gt;DecoratorDesignPatternDriver&lt;/b&gt;&lt;/span&gt;&lt;br&gt;&lt;/p&gt;&lt;hr size=&quot;1&quot; style=&quot;border-style: solid; font-size: 16px;&quot;&gt;&lt;p style=&quot;margin: 0px 0px 0px 4px; font-size: 16px;&quot;&gt;&lt;font style=&quot;font-size: 16px;&quot;&gt;&lt;br&gt;&lt;/font&gt;&lt;/p&gt;&lt;p style=&quot;margin: 0px 0px 0px 4px;&quot;&gt;&lt;font style=&quot;font-size: 16px;&quot;&gt;&amp;nbsp; &amp;nbsp;&amp;nbsp;&lt;/font&gt;&lt;span style=&quot;background-color: initial; font-size: 16px;&quot;&gt;public static void execute() {&lt;/span&gt;&lt;/p&gt;&lt;p style=&quot;margin: 0px 0px 0px 4px;&quot;&gt;&lt;span style=&quot;background-color: initial; font-size: 16px;&quot;&gt;&lt;br&gt;&lt;/span&gt;&lt;/p&gt;&lt;p style=&quot;margin: 0px 0px 0px 4px;&quot;&gt;&lt;span style=&quot;font-size: 16px;&quot;&gt;//&amp;nbsp; &amp;nbsp; &amp;nbsp; &amp;nbsp; BasePizza basePizza = new NonVegPizza();&lt;/span&gt;&lt;/p&gt;&lt;p style=&quot;margin: 0px 0px 0px 4px;&quot;&gt;&lt;span style=&quot;font-size: 16px;&quot;&gt;//&amp;nbsp; &amp;nbsp; &amp;nbsp; &amp;nbsp; ToppingDecorator toppingDecorator = new CheeseDecorator(basePizza);&lt;/span&gt;&lt;/p&gt;&lt;p style=&quot;margin: 0px 0px 0px 4px;&quot;&gt;&lt;span style=&quot;font-size: 16px;&quot;&gt;//&amp;nbsp; &amp;nbsp; &amp;nbsp; &amp;nbsp; ToppingDecorator toppingDecorator2 = new CheeseDecorator(toppingDecorator);&lt;/span&gt;&lt;/p&gt;&lt;p style=&quot;margin: 0px 0px 0px 4px;&quot;&gt;&lt;span style=&quot;font-size: 16px;&quot;&gt;//&amp;nbsp; &amp;nbsp; &amp;nbsp; &amp;nbsp; System.out.println(toppingDecorator2.cost());&lt;/span&gt;&lt;/p&gt;&lt;p style=&quot;margin: 0px 0px 0px 4px;&quot;&gt;&lt;span style=&quot;font-size: 16px;&quot;&gt;&lt;br&gt;&lt;/span&gt;&lt;/p&gt;&lt;p style=&quot;margin: 0px 0px 0px 4px;&quot;&gt;&lt;span style=&quot;font-size: 16px;&quot;&gt;&amp;nbsp; &amp;nbsp; &amp;nbsp; &amp;nbsp; BasePizza pizza = new CheeseDecorator(new OnionDecorator(new CheeseDecorator(new NonVegPizza())));&lt;/span&gt;&lt;/p&gt;&lt;p style=&quot;margin: 0px 0px 0px 4px;&quot;&gt;&lt;span style=&quot;font-size: 16px;&quot;&gt;&amp;nbsp; &amp;nbsp; &amp;nbsp; &amp;nbsp; System.out.println(pizza.cost());&lt;/span&gt;&lt;/p&gt;&lt;p style=&quot;margin: 0px 0px 0px 4px;&quot;&gt;&lt;span style=&quot;font-size: 16px;&quot;&gt;&lt;br&gt;&lt;/span&gt;&lt;/p&gt;&lt;p style=&quot;margin: 0px 0px 0px 4px;&quot;&gt;&lt;span style=&quot;font-size: 16px;&quot;&gt;&amp;nbsp; &amp;nbsp; }&lt;/span&gt;&lt;/p&gt;" style="verticalAlign=top;align=left;overflow=fill;html=1;whiteSpace=wrap;strokeWidth=2;" parent="1" vertex="1">
          <mxGeometry x="-980" y="690" width="970" height="330" as="geometry" />
        </mxCell>
        <mxCell id="nRX86bNfshnZ4T1C2CH_-19" value="&lt;p style=&quot;margin: 4px 0px 0px; text-align: center; font-size: 16px;&quot;&gt;&lt;span style=&quot;background-color: initial;&quot;&gt;&lt;font style=&quot;font-size: 16px;&quot;&gt;&lt;i&gt;&amp;lt;&amp;lt; Class &amp;gt;&amp;gt;&lt;/i&gt;&lt;/font&gt;&lt;/span&gt;&lt;/p&gt;&lt;p style=&quot;margin: 4px 0px 0px; text-align: center;&quot;&gt;&lt;span style=&quot;font-size: 16px;&quot;&gt;&lt;b&gt;NonVegPizza&lt;/b&gt;&lt;/span&gt;&lt;br&gt;&lt;/p&gt;&lt;hr size=&quot;1&quot; style=&quot;border-style: solid; font-size: 16px;&quot;&gt;&lt;br&gt;&lt;div style=&quot;height: 2px; font-size: 16px;&quot;&gt;&lt;font style=&quot;font-size: 16px;&quot;&gt;&amp;nbsp; &amp;nbsp; &amp;nbsp;private final int cost = 150;&lt;br&gt;&lt;br&gt;&lt;/font&gt;&lt;/div&gt;&lt;div style=&quot;font-size: 16px;&quot;&gt;&lt;font style=&quot;font-size: 16px;&quot;&gt;&amp;nbsp; &amp;nbsp; &amp;nbsp;&lt;/font&gt;&lt;/div&gt;&lt;div style=&quot;font-size: 16px;&quot;&gt;&lt;br&gt;&lt;/div&gt;&lt;hr size=&quot;1&quot; style=&quot;border-style: solid; font-size: 16px;&quot;&gt;&lt;p style=&quot;margin: 0px 0px 0px 4px; font-size: 16px;&quot;&gt;&lt;font style=&quot;font-size: 16px;&quot;&gt;&lt;br&gt;&lt;/font&gt;&lt;/p&gt;&lt;p style=&quot;margin: 0px 0px 0px 4px;&quot;&gt;&lt;font style=&quot;font-size: 16px;&quot;&gt;&amp;nbsp; &amp;nbsp;&amp;nbsp;&lt;/font&gt;&lt;span style=&quot;background-color: initial; font-size: 16px;&quot;&gt;@Override&lt;/span&gt;&lt;/p&gt;&lt;p style=&quot;margin: 0px 0px 0px 4px;&quot;&gt;&lt;span style=&quot;font-size: 16px;&quot;&gt;&amp;nbsp; &amp;nbsp; public int cost() {&lt;/span&gt;&lt;/p&gt;&lt;p style=&quot;margin: 0px 0px 0px 4px;&quot;&gt;&lt;span style=&quot;font-size: 16px;&quot;&gt;&amp;nbsp; &amp;nbsp; &amp;nbsp; &amp;nbsp; return cost;&lt;/span&gt;&lt;/p&gt;&lt;p style=&quot;margin: 0px 0px 0px 4px;&quot;&gt;&lt;span style=&quot;font-size: 16px;&quot;&gt;&amp;nbsp; &amp;nbsp; }&lt;/span&gt;&lt;/p&gt;" style="verticalAlign=top;align=left;overflow=fill;html=1;whiteSpace=wrap;strokeWidth=2;" parent="1" vertex="1">
          <mxGeometry x="-1190" y="-220" width="550" height="260" as="geometry" />
        </mxCell>
        <mxCell id="nRX86bNfshnZ4T1C2CH_-20" value="" style="endArrow=classic;html=1;rounded=0;strokeWidth=2;entryX=0.25;entryY=0;entryDx=0;entryDy=0;exitX=1.003;exitY=0.46;exitDx=0;exitDy=0;exitPerimeter=0;" parent="1" source="nRX86bNfshnZ4T1C2CH_-19" target="nRX86bNfshnZ4T1C2CH_-1" edge="1">
          <mxGeometry relative="1" as="geometry">
            <mxPoint x="-470" y="70" as="sourcePoint" />
            <mxPoint x="-470" y="-100" as="targetPoint" />
            <Array as="points">
              <mxPoint x="-520" y="-100" />
            </Array>
          </mxGeometry>
        </mxCell>
        <mxCell id="nRX86bNfshnZ4T1C2CH_-21" value="&lt;span style=&quot;font-size: 16px; background-color: rgb(251, 251, 251);&quot;&gt;Implements&lt;/span&gt;" style="edgeLabel;resizable=0;html=1;;align=center;verticalAlign=middle;" parent="nRX86bNfshnZ4T1C2CH_-20" connectable="0" vertex="1">
          <mxGeometry relative="1" as="geometry" />
        </mxCell>
        <mxCell id="nRX86bNfshnZ4T1C2CH_-22" value="" style="endArrow=classic;html=1;rounded=0;strokeWidth=2;entryX=1;entryY=0.5;entryDx=0;entryDy=0;exitX=0;exitY=0.5;exitDx=0;exitDy=0;" parent="1" source="nRX86bNfshnZ4T1C2CH_-4" target="nRX86bNfshnZ4T1C2CH_-1" edge="1">
          <mxGeometry relative="1" as="geometry">
            <mxPoint x="60" y="-180" as="sourcePoint" />
            <mxPoint x="60" as="targetPoint" />
          </mxGeometry>
        </mxCell>
        <mxCell id="nRX86bNfshnZ4T1C2CH_-23" value="&lt;span style=&quot;font-size: 16px; background-color: rgb(251, 251, 251);&quot;&gt;Implements&lt;/span&gt;" style="edgeLabel;resizable=0;html=1;;align=center;verticalAlign=middle;" parent="nRX86bNfshnZ4T1C2CH_-22" connectable="0" vertex="1">
          <mxGeometry relative="1" as="geometry" />
        </mxCell>
      </root>
    </mxGraphModel>
  </diagram>
</mxfile>
